<?xml version="1.0" encoding="utf-8"?>
<!-- Generator: Adobe Illustrator 17.1.0, SVG Export Plug-In . SVG Version: 6.00 Build 0)  -->
<!DOCTYPE svg PUBLIC "-//W3C//DTD SVG 1.1//EN" "http://www.w3.org/Graphics/SVG/1.1/DTD/svg11.dtd">
<svg version="1.1" id="Layer_1" xmlns="http://www.w3.org/2000/svg" xmlns:xlink="http://www.w3.org/1999/xlink" x="0px" y="0px"
	 viewBox="0 0 156 30" enable-background="new 0 0 156 30" xml:space="preserve">
<path fill="#FFFFFF" d="M3.6,29.4V17.6c0-2.9,1.7-5,4.3-5c2.8,0,3.9,1.9,3.9,4.5v12.3h3.6V17.6c0-2.8,1.7-4.9,4.3-4.9
	c2.7,0,3.9,1.9,3.9,4.5v12.3h3.6V16.7c0-5.1-3.2-7.4-6.4-7.4c-2.3,0-4.7,0.9-6.2,3.7c-1-2.5-3.2-3.7-5.5-3.7c-2.2,0-4.5,1-5.6,3.2
	V9.9H0v19.5H3.6z M42.3,26.6c-3.1,0-5.8-2.4-5.8-7c0-4.5,2.7-6.9,5.8-6.9c3.1,0,5.8,2.4,5.8,6.9C48.1,24.1,45.4,26.6,42.3,26.6
	L42.3,26.6z M42.3,9.3c-5.5,0-9.5,4.4-9.5,10.3c0,6,3.9,10.4,9.5,10.4c5.5,0,9.5-4.4,9.5-10.4C51.8,13.7,47.9,9.3,42.3,9.3L42.3,9.3
	z M60,19.6c0-4,2.2-6.9,5.5-6.9c3.3,0,5.3,2.8,5.3,6.8c0,4-2,7.1-5.3,7.1C62,26.5,60,23.6,60,19.6L60,19.6z M70.8,26.7
	c0,1.2,0.1,2.2,0.2,2.6h3.5c0-0.3-0.2-1.7-0.2-3.6V0h-3.6v12.6c-0.6-1.6-2.4-3.3-5.6-3.3c-5.2,0-8.8,4.7-8.8,10.2
	c0,5.8,3.3,10.3,8.8,10.3c2.9,0,4.8-1.6,5.7-3.5V26.7z M93.9,27c0,0.8,0.1,1.9,0.2,2.4h3.5c-0.1-0.7-0.2-2.1-0.2-3.6V9.9h-3.6v11.8
	c0,3-1.5,5-4.4,5c-3,0-4.2-2.4-4.2-5V9.9h-3.6v12.3c0,4.4,2.6,7.8,6.9,7.8C90.6,30,92.9,29.1,93.9,27L93.9,27z M108.6,29.4V0H105
	v29.4H108.6z M118.6,17.6c0.2-2.5,2-5,5-5c3.3,0,5,2.2,5.1,5H118.6z M129.2,22.7c-0.7,2.2-2.2,3.9-5.2,3.9c-3.1,0-5.5-2.4-5.6-5.9
	h13.9c0-0.2,0.1-0.7,0.1-1.2c0-6.1-3.2-10.2-8.9-10.2c-4.7,0-8.8,4.2-8.8,10.3c0,6.6,4.3,10.4,9.3,10.4c4.3,0,7.3-2.7,8.3-6.2
	L129.2,22.7z M143.8,5.5c0-1.3,0.2-2.4,0.7-3c0.3-0.5,0.8-0.8,1.6-0.8s1.2,0.3,1.6,0.8c0.5,0.7,0.7,1.7,0.7,3c0,1.3-0.2,2.4-0.7,3
	c-0.4,0.5-0.8,0.8-1.6,0.8s-1.2-0.3-1.6-0.8C144,7.9,143.8,6.9,143.8,5.5z M141.9,5.5c0,1.4,0.2,2.7,0.9,3.8c0.7,1,1.7,1.7,3.2,1.7
	c1.5,0,2.5-0.7,3.2-1.7c0.7-1.1,0.9-2.4,0.9-3.8c0-1.4-0.2-2.7-0.9-3.8c-0.7-1-1.7-1.7-3.2-1.7c-1.5,0-2.6,0.7-3.2,1.7
	C142.2,2.8,141.9,4.1,141.9,5.5L141.9,5.5z M156,10.8V0.2h-1.6c-0.2,1.1-1.2,2-2.7,2v1.3h2.4v7.3H156z"/>
</svg>
